<svg width="960" height="960" viewBox="0 0 960 960" fill="none" xmlns="http://www.w3.org/2000/svg">
<g clip-path="url(#clip0_72_30)">
<path d="M908.562 478.125C911.161 714.563 713.636 904.232 477.124 904.232C364.524 904.927 256.223 861.051 175.874 782.188C95.5251 703.324 49.6562 595.88 48.2852 483.321C48.2852 246.884 243.212 57.2143 477.124 57.2143C533.317 56.1825 589.159 66.2703 641.436 86.8971C693.714 107.524 741.395 138.282 781.735 177.403C822.075 216.523 854.278 263.232 876.49 314.842C898.702 366.452 910.485 421.945 911.161 478.125H908.562ZM830.592 478.125C828.546 386.693 790.596 299.737 724.942 236.049C659.288 172.36 571.204 137.054 479.723 137.759C434.159 137.759 389.04 146.731 346.944 164.162C304.847 181.594 266.598 207.143 234.379 239.352C202.16 271.561 176.602 309.799 159.165 351.882C141.728 393.966 132.754 439.07 132.754 484.621C132.754 530.171 141.728 575.276 159.165 617.359C176.602 659.442 202.16 697.68 234.379 729.889C266.598 762.098 304.847 787.648 346.944 805.079C389.04 822.51 434.159 831.482 479.723 831.482C526.238 831.828 572.357 822.924 615.397 805.289C658.438 787.653 697.542 761.638 730.434 728.757C763.325 695.876 789.348 656.784 806.989 613.757C824.63 570.73 833.537 524.625 833.191 478.125H830.592ZM482.322 519.696C495.317 519.696 508.313 506.705 508.313 488.518V210.509C506.394 204.074 502.448 198.43 497.063 194.417C491.678 190.404 485.141 188.237 478.424 188.237C471.707 188.237 465.17 190.404 459.785 194.417C454.399 198.43 450.454 204.074 448.535 210.509V488.518C448.535 506.705 461.53 519.696 479.723 519.696H482.322ZM282.197 488.518H477.124H287.396H282.197ZM477.124 519.696C483.561 517.778 489.207 513.834 493.221 508.451C497.235 503.067 499.404 496.532 499.404 489.817C499.404 483.102 497.235 476.567 493.221 471.183C489.207 465.8 483.561 461.856 477.124 459.938H287.396C280.959 461.856 275.313 465.8 271.299 471.183C267.285 476.567 265.116 483.102 265.116 489.817C265.116 496.532 267.285 503.067 271.299 508.451C275.313 513.834 280.959 517.778 287.396 519.696H482.322H477.124Z" fill="white"/>
</g>
<defs>
<clipPath id="clip0_72_30">
<rect width="960" height="960" fill="white"/>
</clipPath>
</defs>
</svg>
